<svg width="135" height="38" viewBox="0 0 135 38" fill="none" xmlns="http://www.w3.org/2000/svg">
<path d="M34.5978 1.32024e-05C34.9311 1.32024e-05 35.2281 0.0749282 35.4916 0.224758C35.7551 0.374588 35.9592 0.58125 36.1065 0.844745C36.2537 1.10824 36.326 1.40532 36.326 1.73856C36.326 2.0718 36.2537 2.36888 36.1065 2.63237C35.9592 2.89587 35.7551 3.10253 35.4916 3.25236C35.2281 3.40219 34.9311 3.4771 34.5978 3.4771C34.2646 3.4771 33.9675 3.40219 33.704 3.25236C33.4405 3.10253 33.2339 2.89587 33.084 2.63237C32.9342 2.36888 32.8593 2.0718 32.8593 1.73856C32.8593 1.40532 32.9342 1.10824 33.084 0.844745C33.2339 0.58125 33.4405 0.374588 33.704 0.224758C33.9675 0.0749282 34.2646 1.32024e-05 34.5978 1.32024e-05ZM15.5642 1.73856H16.4271H17.2899V10.3305L20.7825 8.64107V12.4747L17.2899 14.1641V17.9977L22.5081 15.4428V19.31L17.2899 21.8313V25.6649L24.226 22.3092L24.2492 26.1273L17.2899 29.4984V33.332L27.6772 28.3076V5.18982H20.7411V1.73856H31.1285V30.4698L15.5642 38L0 30.4698V1.73856H10.3874V5.18982H3.45126V28.3076L13.8386 33.332V29.4984L6.87927 26.1273L6.90252 22.3092L13.8386 25.6649V21.8313L8.62039 19.31V15.4428L13.8386 17.9977V14.1641L10.346 12.4747V8.64107L13.8386 10.3305V1.73856H15.5642ZM34.5978 3.09478C34.9957 3.09478 35.316 2.97078 35.5588 2.7202C35.7991 2.46963 35.9205 2.14413 35.9205 1.73856C35.9205 1.33298 35.7991 1.00749 35.5588 0.756913C35.3186 0.508919 34.9982 0.382338 34.5978 0.382338C34.1923 0.382338 33.8719 0.506335 33.6343 0.756913C33.3966 1.00749 33.2778 1.33298 33.2778 1.73856C33.2778 2.14413 33.3966 2.46963 33.6343 2.7202C33.8719 2.97078 34.1948 3.09478 34.5978 3.09478ZM35.3625 1.4079C35.3625 1.52931 35.3315 1.63523 35.2721 1.72823C35.2101 1.81864 35.1274 1.88839 35.0215 1.9323L35.4632 2.61429H34.8303L34.4635 1.99172H34.4041V2.61429H33.8797V0.826662H34.7192C34.913 0.826662 35.068 0.880911 35.1842 0.989408C35.3005 1.09791 35.3599 1.2374 35.3599 1.4079H35.3625ZM34.4067 1.56548H34.6882C34.7322 1.56548 34.7709 1.55256 34.7993 1.52931C34.8303 1.50348 34.8458 1.4699 34.8458 1.42598C34.8458 1.38207 34.8303 1.34848 34.7993 1.32523C34.7683 1.30198 34.7322 1.29165 34.6882 1.29165H34.4067V1.56548Z" fill="#FC2C38"/>
<path d="M76.5681 32.6166H74.1243V33.9057C74.2302 33.7739 74.38 33.668 74.5764 33.5854C74.7727 33.5027 74.9819 33.4614 75.2015 33.4614C75.6045 33.4614 75.9326 33.5492 76.1883 33.7249C76.4441 33.9005 76.6301 34.1253 76.7463 34.3991C76.8626 34.6729 76.9194 34.9648 76.9194 35.2774C76.9194 35.8561 76.7541 36.3211 76.426 36.6724C76.0953 37.0237 75.6277 37.1994 75.0181 37.1994C74.4446 37.1994 73.9874 37.0573 73.6464 36.7705C73.3054 36.4838 73.1116 36.1092 73.0651 35.6468H74.0907C74.1372 35.8483 74.2379 36.0085 74.3955 36.1299C74.5531 36.2513 74.7572 36.3107 75.0026 36.3107C75.2997 36.3107 75.5218 36.2177 75.6742 36.0317C75.8241 35.8457 75.9016 35.6003 75.9016 35.2929C75.9016 34.9803 75.8241 34.7427 75.6717 34.5799C75.5192 34.4172 75.2919 34.3345 74.9974 34.3345C74.7856 34.3345 74.6099 34.3862 74.4704 34.4921C74.3284 34.598 74.2302 34.7375 74.1682 34.9132H73.1581V31.6841H76.5681V32.6115V32.6166ZM77.6117 36.148H78.6683V37.2045H77.6117V36.148ZM42.5928 31.4722H43.6494V32.5288H42.5928V31.4722ZM39.8158 37.2588C39.449 37.2588 39.1183 37.1968 38.8238 37.0702C38.5293 36.9436 38.2968 36.7628 38.1263 36.5277C37.9558 36.2926 37.868 36.0111 37.8628 35.6907H38.9943C39.0098 35.9077 39.0873 36.0782 39.2242 36.2048C39.3637 36.3314 39.5523 36.3934 39.7951 36.3934C40.0405 36.3934 40.2343 36.334 40.3764 36.2151C40.5158 36.0963 40.5882 35.9413 40.5882 35.7501C40.5882 35.5952 40.5417 35.466 40.4461 35.3652C40.3505 35.2645 40.2317 35.1844 40.087 35.1276C39.9449 35.0707 39.746 35.0062 39.4955 34.9364C39.1545 34.8357 38.8755 34.7375 38.6611 34.6393C38.4466 34.5412 38.2632 34.3939 38.1108 34.195C37.9584 33.9961 37.8809 33.73 37.8809 33.3994C37.8809 33.0868 37.9584 32.8155 38.116 32.5856C38.271 32.3531 38.4906 32.1775 38.7721 32.0535C39.0537 31.9295 39.3766 31.8675 39.7383 31.8675C40.2808 31.8675 40.7225 31.9992 41.0609 32.2627C41.3993 32.5262 41.5879 32.8956 41.6241 33.3684H40.4616C40.4513 33.1875 40.3738 33.0377 40.2317 32.9189C40.087 32.8 39.8984 32.7406 39.6634 32.7406C39.4567 32.7406 39.2914 32.7923 39.17 32.8982C39.046 33.0041 38.984 33.1565 38.984 33.358C38.984 33.4975 39.0305 33.6164 39.1235 33.7094C39.2165 33.8024 39.3327 33.8773 39.4696 33.9367C39.6091 33.9935 39.8029 34.0607 40.0534 34.1356C40.3944 34.2363 40.6734 34.3371 40.8904 34.4378C41.1074 34.5386 41.2934 34.6884 41.4484 34.8899C41.6034 35.0914 41.6809 35.3549 41.6809 35.683C41.6809 35.9646 41.6086 36.2255 41.4613 36.4683C41.3141 36.7085 41.1023 36.9023 40.8207 37.0444C40.5391 37.189 40.2059 37.2588 39.8184 37.2588H39.8158ZM43.6468 33.0274V37.2071H42.5902V33.0274H43.6468ZM47.0025 32.968C47.501 32.968 47.9014 33.1255 48.2088 33.4381C48.5163 33.7533 48.6687 34.1924 48.6687 34.7556V37.2071H47.6121V34.8977C47.6121 34.5644 47.5294 34.3113 47.3641 34.133C47.1988 33.9548 46.9715 33.8644 46.6847 33.8644C46.3928 33.8644 46.1629 33.9548 45.995 34.133C45.8271 34.3113 45.7418 34.567 45.7418 34.8977V37.2071H44.6853V33.0274H45.7418V33.5466C45.8839 33.3658 46.0621 33.2237 46.2817 33.1204C46.5013 33.017 46.7415 32.9654 47.0025 32.9654V32.968ZM51.4689 32.9602C51.9856 32.9602 52.4144 33.0894 52.7554 33.3477C53.0938 33.606 53.3212 33.9703 53.4374 34.4378H52.2982C52.2388 34.257 52.1354 34.1149 51.9933 34.0116C51.8513 33.9083 51.673 33.8566 51.4612 33.8566C51.1589 33.8566 50.9213 33.9651 50.7456 34.1847C50.57 34.4043 50.4821 34.7143 50.4821 35.1172C50.4821 35.5151 50.57 35.8225 50.7456 36.0421C50.9213 36.2616 51.1615 36.3701 51.4612 36.3701C51.89 36.3701 52.169 36.179 52.2982 35.7967H53.4374C53.3212 36.2487 53.0938 36.6078 52.7502 36.8765C52.4093 37.1425 51.9804 37.2769 51.4689 37.2769C51.066 37.2769 50.7095 37.1865 50.3969 37.0082C50.0843 36.83 49.8415 36.5794 49.6658 36.2539C49.4901 35.9284 49.4023 35.5512 49.4023 35.1198C49.4023 34.6884 49.4901 34.3087 49.6658 33.9832C49.8415 33.6577 50.0869 33.4071 50.3969 33.2289C50.7095 33.0506 51.066 32.9602 51.4689 32.9602ZM58.1002 35.0268C58.1002 35.1767 58.0899 35.3136 58.0692 35.435H55.0132C55.039 35.7372 55.1449 35.9723 55.3309 36.1428C55.5169 36.3133 55.7468 36.3986 56.0181 36.3986C56.4108 36.3986 56.6897 36.2306 56.8551 35.8922H57.9943C57.8729 36.2952 57.643 36.6259 57.2994 36.8842C56.9584 37.1425 56.5373 37.2717 56.0388 37.2717C55.6358 37.2717 55.2767 37.1813 54.9564 37.003C54.636 36.8248 54.388 36.5716 54.2098 36.2461C54.0316 35.9181 53.9411 35.5409 53.9411 35.1147C53.9411 34.6833 54.029 34.3035 54.2046 33.9754C54.3803 33.6474 54.6283 33.3968 54.9434 33.2211C55.2612 33.0455 55.6254 32.9576 56.0362 32.9576C56.434 32.9576 56.7905 33.0429 57.1031 33.2134C57.4182 33.3839 57.6611 33.6267 57.8341 33.9419C58.0072 34.257 58.095 34.6161 58.095 35.0242L58.1002 35.0268ZM57.0075 34.7246C57.0023 34.4533 56.9042 34.2363 56.713 34.071C56.5218 33.9083 56.2868 33.8256 56.0103 33.8256C55.7494 33.8256 55.5299 33.9057 55.3516 34.0633C55.1734 34.2209 55.0649 34.4404 55.0235 34.722H57.0075V34.7246ZM60.4174 32.6812V31.7073H62.236V37.2071H61.1511V32.6812H60.42H60.4174ZM64.499 35.6597C64.5403 35.8819 64.6307 36.0498 64.7754 36.1686C64.9175 36.2875 65.1112 36.3469 65.3515 36.3469C65.664 36.3469 65.8888 36.2177 66.0309 35.9594C66.173 35.7011 66.2427 35.2645 66.2427 34.6497C66.1265 34.8098 65.9637 34.9364 65.757 35.0268C65.5478 35.1172 65.3231 35.1612 65.0828 35.1612C64.7599 35.1612 64.4706 35.094 64.2122 34.9622C63.9539 34.8279 63.7473 34.6316 63.5974 34.3655C63.4476 34.102 63.3701 33.7817 63.3701 33.4045C63.3701 32.8465 63.5354 32.4022 63.8687 32.0741C64.1993 31.7435 64.654 31.5807 65.2275 31.5807C65.9405 31.5807 66.4468 31.8107 66.7387 32.2679C67.0332 32.7251 67.1804 33.4149 67.1804 34.3345C67.1804 34.9881 67.1236 35.5228 67.0099 35.9413C66.8963 36.3598 66.7025 36.675 66.4287 36.892C66.1549 37.109 65.7803 37.2175 65.3076 37.2175C64.9356 37.2175 64.6178 37.1451 64.3569 37.003C64.096 36.8584 63.8945 36.6698 63.7576 36.4373C63.6181 36.2022 63.5406 35.9465 63.5199 35.6649H64.5016L64.499 35.6597ZM66.1445 33.4123C66.1445 33.1152 66.0645 32.8853 65.9069 32.7225C65.7493 32.5598 65.5323 32.4771 65.2611 32.4771C64.9898 32.4771 64.7754 32.5624 64.6152 32.7303C64.4577 32.8982 64.3776 33.1204 64.3776 33.3968C64.3776 33.6629 64.4551 33.8799 64.6075 34.0504C64.7599 34.2183 64.9898 34.3035 65.2972 34.3035C65.5581 34.3035 65.7648 34.2234 65.9146 34.0633C66.0645 33.9031 66.142 33.6861 66.142 33.4149L66.1445 33.4123ZM70.0375 31.6014C70.766 31.6014 71.2878 31.8468 71.603 32.3402C71.9182 32.8336 72.0757 33.5156 72.0757 34.3836C72.0757 35.2593 71.9182 35.9439 71.603 36.4425C71.2878 36.941 70.766 37.189 70.0375 37.189C69.3091 37.189 68.7872 36.941 68.4721 36.4425C68.1569 35.9439 67.9993 35.2593 67.9993 34.3836C67.9993 33.513 68.1569 32.831 68.4721 32.3402C68.7872 31.8468 69.3091 31.6014 70.0375 31.6014ZM70.0375 32.5831C69.756 32.5831 69.5441 32.6631 69.3995 32.8233C69.2574 32.9835 69.1618 33.1927 69.1127 33.4459C69.0636 33.699 69.0404 34.0142 69.0404 34.3862C69.0404 34.7685 69.0636 35.0888 69.1076 35.3472C69.1541 35.6055 69.2471 35.8147 69.3943 35.9723C69.539 36.1299 69.7534 36.21 70.0349 36.21C70.3165 36.21 70.5309 36.1299 70.6756 35.9723C70.8203 35.8147 70.9159 35.6055 70.9624 35.3472C71.0089 35.0888 71.0295 34.7685 71.0295 34.3862C71.0295 34.0142 71.0063 33.7016 70.9572 33.4459C70.9081 33.1927 70.8125 32.9835 70.6704 32.8233C70.5258 32.6631 70.3139 32.5831 70.0324 32.5831H70.0375Z" fill="#1E1E1E"/>
<path d="M125.322 28.1036C124.423 28.1036 123.612 27.9124 122.894 27.5275C122.176 27.1426 121.61 26.595 121.2 25.882C120.789 25.169 120.582 24.3346 120.582 23.3814C120.582 22.4385 120.791 21.6067 121.207 20.8885C121.623 20.1704 122.197 19.6175 122.92 19.2352C123.643 18.8529 124.457 18.6591 125.356 18.6591C126.255 18.6591 127.069 18.8503 127.792 19.2352C128.515 19.6175 129.086 20.1704 129.505 20.8885C129.921 21.6067 130.13 22.4385 130.13 23.3814C130.13 24.3243 129.918 25.1561 129.497 25.8742C129.076 26.5924 128.497 27.1452 127.769 27.5275C127.04 27.9099 126.224 28.1036 125.325 28.1036H125.322ZM39.1236 27.9719H39.121H37.8656V25.7993H39.121L39.1133 18.4602H37.8656V16.2877H39.1107H39.121H41.9265H43.182V18.4602H41.9291L41.9368 25.7993H42.9417H44.2618V23.6268H46.69V27.9719H46.0184H44.2618H42.9417H39.1236ZM113.935 16.2877C114.984 16.2877 115.914 16.4995 116.733 16.9206V16.2877H118.931V19.0802V20.3357H116.733H116.322C116.092 19.8526 115.764 19.4858 115.343 19.2326C114.922 18.9795 114.442 18.8529 113.904 18.8529C113.039 18.8529 112.336 19.1551 111.799 19.757C111.262 20.3589 110.993 21.1675 110.993 22.175C110.993 23.185 111.262 23.991 111.799 24.5929C112.336 25.1974 113.039 25.4971 113.904 25.4971C114.442 25.4971 114.922 25.3705 115.343 25.1199C115.767 24.8668 116.092 24.4999 116.322 24.0169H119.417C119.089 25.2672 118.435 26.254 117.459 26.9721C116.482 27.6903 115.31 28.0494 113.938 28.0494C112.819 28.0494 111.817 27.7988 110.934 27.3002C110.05 26.8016 109.363 26.1067 108.867 25.2181C108.374 24.3294 108.126 23.3142 108.126 22.1724C108.126 21.0306 108.374 20.0128 108.867 19.119C109.36 18.2252 110.05 17.5277 110.934 17.0291C111.817 16.5305 112.817 16.2799 113.938 16.2799L113.935 16.2877ZM131.202 27.9719H134.015V25.4867H131.202V27.9719ZM76.7594 16.2877H79.5726V20.0903C79.8361 19.6615 80.2158 19.3153 80.7092 19.0544C81.2026 18.7909 81.7684 18.6591 82.4038 18.6591C83.1607 18.6591 83.8479 18.8503 84.4601 19.2352C85.075 19.6175 85.5606 20.1678 85.9171 20.8808C86.2736 21.5937 86.4518 22.423 86.4518 23.3659C86.4518 24.3088 86.2736 25.1406 85.9171 25.8587C85.5606 26.5769 85.075 27.1323 84.4601 27.5198C83.8479 27.9099 83.1607 28.1036 82.4038 28.1036C81.7554 28.1036 81.1897 27.9744 80.7092 27.7161C80.2261 27.4578 79.849 27.1142 79.5726 26.688V27.9719H76.7594V19.9869V18.4602V16.2877ZM57.3073 18.7883V27.9719H54.4941V26.7216C54.21 27.1271 53.8225 27.4552 53.3342 27.7006C52.846 27.946 52.3061 28.07 51.7119 28.07C51.0093 28.07 50.3893 27.9124 49.852 27.5999C49.3147 27.2873 48.8962 26.8326 48.6017 26.2411C48.3072 25.6495 48.1573 24.952 48.1573 24.1512V18.7857H50.955V23.7714C50.955 24.3837 51.1152 24.8642 51.4329 25.2026C51.7507 25.5436 52.1795 25.7115 52.7168 25.7115C53.2645 25.7115 53.6985 25.541 54.0162 25.2026C54.334 24.8642 54.4941 24.3863 54.4941 23.7714V18.7857H57.3073V18.7883ZM71.0478 18.6901C72.1896 18.6901 73.0963 19.0363 73.7705 19.726C74.4448 20.4158 74.7832 21.3793 74.7832 22.6064V27.9719H71.9855V22.9861C71.9855 22.3946 71.8279 21.9347 71.5153 21.6118C71.2028 21.2889 70.7714 21.1262 70.2237 21.1262C69.676 21.1262 69.2446 21.2889 68.9321 21.6118C68.6195 21.9347 68.4619 22.3946 68.4619 22.9861V27.9719H65.6642V22.9861C65.6642 22.3946 65.5066 21.9347 65.1941 21.6118C64.8815 21.2889 64.4501 21.1262 63.9024 21.1262C63.3548 21.1262 62.9234 21.2889 62.6108 21.6118C62.2982 21.9347 62.1406 22.3946 62.1406 22.9861V27.9719H59.3274V18.7883H62.1406V19.9404C62.4248 19.5555 62.7994 19.2507 63.2592 19.0286C63.719 18.8038 64.2408 18.6901 64.8221 18.6901C65.5144 18.6901 66.1318 18.8374 66.6743 19.1345C67.2168 19.4315 67.643 19.8526 67.9504 20.4003C68.2682 19.8965 68.7021 19.4832 69.2498 19.1655C69.7975 18.8477 70.3968 18.6876 71.0426 18.6876L71.0478 18.6901ZM81.5643 21.1081C81.0037 21.1081 80.531 21.3122 80.1409 21.7177C79.7508 22.1233 79.5571 22.6787 79.5571 23.3788C79.5571 24.0814 79.7534 24.6368 80.1409 25.0398C80.531 25.4454 81.0037 25.6495 81.5643 25.6495C82.1249 25.6495 82.6028 25.4428 82.9954 25.0321C83.3907 24.6213 83.587 24.0634 83.587 23.3607C83.587 22.6581 83.3907 22.1052 83.0032 21.7074C82.6157 21.307 82.1352 21.1055 81.5643 21.1055V21.1081ZM96.5886 23.2315C96.5886 23.495 96.5731 23.7689 96.5395 24.0556H90.1718C90.2157 24.6265 90.3991 25.0631 90.722 25.3627C91.0449 25.665 91.4427 25.8148 91.9155 25.8148C92.6181 25.8148 93.1064 25.5177 93.3802 24.9262H96.3768C96.2218 25.5307 95.9454 26.0731 95.545 26.5562C95.1446 27.0393 94.6434 27.419 94.0389 27.6929C93.437 27.9667 92.7602 28.1036 92.0136 28.1036C91.1147 28.1036 90.3113 27.9124 89.6112 27.5275C88.9085 27.1452 88.3609 26.595 87.9656 25.882C87.5704 25.169 87.3741 24.3346 87.3741 23.3814C87.3741 22.4256 87.5704 21.5912 87.9579 20.8808C88.3454 20.1678 88.893 19.6175 89.5957 19.2352C90.2958 18.8529 91.1043 18.6591 92.0136 18.6591C92.9023 18.6591 93.6928 18.8451 94.3825 19.2197C95.0722 19.5917 95.6147 20.1264 96.0022 20.8162C96.3923 21.5059 96.586 22.3145 96.586 23.2341L96.5886 23.2315ZM93.7083 22.4901C93.7083 22.0071 93.5429 21.6222 93.2149 21.338C92.8868 21.0538 92.476 20.9092 91.9801 20.9092C91.5073 20.9092 91.1095 21.0461 90.7866 21.3199C90.4637 21.5937 90.2622 21.9838 90.1847 22.4876H93.7057L93.7083 22.4901ZM100.882 20.3176C101.21 19.8139 101.623 19.4135 102.117 19.1241C102.61 18.8348 103.158 18.6876 103.762 18.6876V21.6661H102.99C102.29 21.6661 101.76 21.8185 101.409 22.1182C101.058 22.4204 100.882 22.95 100.882 23.7069V27.9693H98.0688V18.7857H100.882V20.315V20.3176ZM125.32 25.665C125.857 25.665 126.317 25.4661 126.694 25.0734C127.071 24.6782 127.262 24.1124 127.262 23.3788C127.262 22.6426 127.079 22.0768 126.712 21.6842C126.345 21.2889 125.891 21.0926 125.353 21.0926C124.806 21.0926 124.349 21.2889 123.987 21.6764C123.625 22.0665 123.444 22.6348 123.444 23.3788C123.444 24.1124 123.623 24.6808 123.979 25.0734C124.336 25.4687 124.782 25.665 125.32 25.665ZM98.0068 1.73351V13.4177H95.1937V1.73351H98.0068ZM43.6728 1.73351C44.7216 1.73351 45.6516 1.94534 46.4705 2.36641V1.73351H48.6688V4.52603V5.78151H46.4705H46.0597C45.8298 5.29843 45.5017 4.93161 45.0807 4.67845C44.6596 4.42529 44.1791 4.30129 43.6418 4.30129C42.7764 4.30129 42.0737 4.60353 41.5338 5.20544C40.9965 5.80992 40.7278 6.61591 40.7278 7.62338C40.7278 8.63344 40.9965 9.43943 41.5338 10.0413C42.0711 10.6458 42.7738 10.9455 43.6418 10.9455C44.1791 10.9455 44.6596 10.8189 45.0807 10.5683C45.5043 10.3152 45.8298 9.94833 46.0597 9.46526H49.1545C48.8264 10.7156 48.1728 11.6998 47.1964 12.4205C46.2199 13.1387 45.0471 13.4978 43.6754 13.4978C42.5568 13.4978 41.5545 13.2472 40.671 12.7486C39.7875 12.25 39.1004 11.5551 38.607 10.6665C38.1136 9.77784 37.8656 8.76261 37.8656 7.6208C37.8656 6.47899 38.1136 5.46118 38.607 4.56737C39.1004 3.67355 39.7901 2.97607 40.671 2.4775C41.5545 1.97892 42.5542 1.72835 43.6754 1.72835L43.6728 1.73351ZM73.228 1.00503H76.0412V3.39973H73.228V1.00503ZM81.3421 13.4022V13.4177H78.5289V10.2247V6.57199H77.4104V4.23412H78.5289V1.73351H81.3421V4.23412H82.812V6.57199H81.3421V8.41387V10.2557V10.2687V13.3996V13.4022ZM54.3701 4.10238C55.0185 4.10238 55.5843 4.23412 56.0725 4.49762C56.5607 4.76111 56.9353 5.10727 57.1988 5.53351V4.23412H60.012V13.4177H57.1988V12.1183C56.925 12.5471 56.5427 12.8933 56.0544 13.1542C55.5662 13.4177 54.9979 13.5494 54.352 13.5494C53.6055 13.5494 52.9261 13.3557 52.3113 12.9656C51.6964 12.5755 51.2108 12.0227 50.8543 11.3046C50.4978 10.5864 50.3195 9.75459 50.3195 8.81169C50.3195 7.86879 50.4978 7.03956 50.8543 6.32658C51.2108 5.61359 51.6964 5.06594 52.3113 4.68103C52.9261 4.29612 53.6106 4.10496 54.3675 4.10496L54.3701 4.10238ZM55.1916 6.55391C54.631 6.55391 54.1583 6.75282 53.7682 7.15581C53.3781 7.55622 53.1844 8.10646 53.1844 8.80911C53.1844 9.51176 53.3781 10.0672 53.7682 10.4805C54.1583 10.8912 54.6336 11.0979 55.1916 11.0979C55.7522 11.0979 56.2249 10.8938 56.615 10.4882C57.0051 10.0827 57.1988 9.52726 57.1988 8.82719C57.1988 8.12454 57.0051 7.57172 56.615 7.16614C56.2249 6.76057 55.7522 6.55649 55.1916 6.55649V6.55391ZM67.6998 4.10238C68.4567 4.10238 69.1439 4.29354 69.7561 4.67845C70.3709 5.06336 70.8566 5.61101 71.2131 6.32399C71.5696 7.03698 71.7478 7.86621 71.7478 8.80911C71.7478 9.752 71.5696 10.5838 71.2131 11.302C70.8566 12.0201 70.3709 12.5755 69.7561 12.963C69.1413 13.3531 68.4567 13.5468 67.6998 13.5468C67.0644 13.5468 66.5012 13.4151 66.013 13.1516C65.5247 12.8881 65.1424 12.5497 64.8686 12.1312V16.546H62.0554V4.23154H64.8686V5.53093C65.1424 5.10469 65.5221 4.75853 66.0052 4.49503C66.4883 4.23154 67.054 4.09979 67.6998 4.09979V4.10238ZM66.8603 6.55391C66.2997 6.55391 65.827 6.75799 65.4369 7.16356C65.0468 7.56913 64.8531 8.12454 64.8531 8.82461C64.8531 9.52726 65.0468 10.0801 65.4369 10.4857C65.827 10.8912 66.2997 11.0953 66.8603 11.0953C67.4208 11.0953 67.8962 10.8886 68.2914 10.4779C68.6866 10.0672 68.883 9.50918 68.883 8.80652C68.883 8.10387 68.6892 7.55363 68.2992 7.15323C67.9091 6.75282 67.4286 6.55132 66.8603 6.55132V6.55391ZM76.0438 4.23412V13.4177H73.2306V4.23412H76.0438ZM87.5084 4.10238C88.1568 4.10238 88.7251 4.23412 89.2108 4.49762C89.699 4.76111 90.0736 5.10727 90.3371 5.53351V4.23412H93.1503V13.4177H90.3371V12.1183C90.0633 12.5471 89.6809 12.8933 89.1927 13.1542C88.7045 13.4177 88.1361 13.5494 87.4903 13.5494C86.7438 13.5494 86.0644 13.3531 85.4495 12.9656C84.8347 12.5755 84.3491 12.0227 83.9926 11.3046C83.6361 10.5864 83.4578 9.75459 83.4578 8.81169C83.4578 7.86879 83.6361 7.03956 83.9926 6.32658C84.3491 5.61359 84.8347 5.06336 85.4495 4.68103C86.0644 4.29871 86.7489 4.10496 87.5058 4.10496L87.5084 4.10238ZM88.3299 6.55391C87.7693 6.55391 87.2966 6.7554 86.9065 7.15581C86.5164 7.55622 86.3227 8.10646 86.3227 8.80911C86.3227 9.51176 86.519 10.0697 86.9065 10.4805C87.2966 10.8912 87.7693 11.0979 88.3299 11.0979C88.8905 11.0979 89.3632 10.8938 89.7533 10.4882C90.1433 10.0827 90.3371 9.52726 90.3371 8.82719C90.3371 8.12454 90.1433 7.57172 89.7533 7.16614C89.3632 6.76057 88.8905 6.55649 88.3299 6.55649V6.55391Z" fill="#1E1E1E"/>
</svg>
